<svg width="157" height="177" viewBox="0 0 157 177" fill="none" xmlns="http://www.w3.org/2000/svg">
<rect x="19.4175" y="5" width="71" height="93" rx="16" fill="#FF9228"/>
<rect opacity="0.2" x="53.9639" width="71" height="93" rx="16" transform="rotate(25.1651 53.9639 0)" fill="#FF9228"/>
<rect x="29.4175" y="17" width="21" height="21" rx="6" fill="white"/>
<path d="M32.4175 53H77.4175" stroke="white" stroke-width="5" stroke-linecap="square"/>
<path d="M32.4175 68H77.4175" stroke="white" stroke-width="5" stroke-linecap="square"/>
<path d="M32.4175 83H60.4175" stroke="white" stroke-width="5" stroke-linecap="square"/>
<circle cx="84.3694" cy="98.2721" r="22.3052" transform="rotate(28.6511 84.3694 98.2721)" fill="#423273" stroke="#8A7AB8" stroke-width="8"/>
<path d="M73.5512 118.62L65.8352 132.742" stroke="#8A7AB8" stroke-width="8" stroke-linecap="round"/>
<path d="M71.8221 122.1L68.8994 142.613L55.7778 135.649L71.8221 122.1Z" fill="#8A7AB8"/>
<path d="M53.286 140.281L66.273 147.173L58.71 160.756C56.7348 164.303 52.2264 165.636 48.6401 163.732C45.0539 161.829 43.7478 157.411 45.723 153.863L53.286 140.281Z" fill="#3F2787"/>
<path d="M89.6195 93.3179L79.3658 104.066" stroke="white" stroke-width="5" stroke-linecap="round"/>
<path d="M79.119 93.5649L89.8672 103.819" stroke="white" stroke-width="5" stroke-linecap="round"/>
<circle opacity="0.1" cx="4.2038" cy="4.2038" r="4.2038" transform="matrix(1 0 0 -1 106.793 62.4768)" fill="#27308C"/>
<circle opacity="0.2" cx="2.52228" cy="2.52228" r="2.52228" transform="matrix(1 0 0 -1 36.1699 176.82)" fill="#27308C"/>
<path d="M9.32915 38.8127C8.18182 35.9552 10.558 32.9273 13.6063 33.3624L18.6301 34.0795C21.6784 34.5146 23.1126 38.0865 21.2116 40.5088L18.0787 44.501C16.1777 46.9233 12.3673 46.3794 11.22 43.5219L9.32915 38.8127Z" fill="#FF9E87"/>
<path d="M6.6616 119.96C5.64789 117.435 7.74737 114.76 10.4406 115.144C13.1339 115.529 14.4011 118.684 12.7215 120.825C11.0419 122.965 7.6753 122.484 6.6616 119.96Z" fill="#FF9E87"/>
<path d="M130.644 100.31C128.673 95.4007 132.756 90.1985 137.993 90.9461C143.23 91.6936 145.694 97.8303 142.428 101.992C139.162 106.154 132.615 105.219 130.644 100.31Z" fill="#FF9E87"/>
<path opacity="0.2" d="M98.5923 149.414C96.4325 147.219 97.4585 143.509 100.439 142.736L105.351 141.462C108.332 140.689 111.032 143.433 110.211 146.4L108.858 151.292C108.037 154.259 104.312 155.226 102.152 153.031L98.5923 149.414Z" fill="#FF9E87"/>
<path opacity="0.3" d="M137.374 41.2901C133.74 46.68 133.515 30.0684 128.125 26.4342C122.735 22.8 107.76 20.5437 111.394 15.1537C115.028 9.76366 132.346 13.0564 137.736 16.6906C143.126 20.3248 141.009 35.9001 137.374 41.2901Z" fill="#03A9F4"/>
</svg>
